<?xml version="1.0" encoding="UTF-8" standalone="no"?>
<svg
   xmlns:dc="http://purl.org/dc/elements/1.1/"
   xmlns:cc="http://creativecommons.org/ns#"
   xmlns:rdf="http://www.w3.org/1999/02/22-rdf-syntax-ns#"
   xmlns:svg="http://www.w3.org/2000/svg"
   xmlns="http://www.w3.org/2000/svg"
   id="svg8"
   version="1.1"
   viewBox="0 0 132.59621 26.416992"
   height="26.416992mm"
   width="132.59621mm">
  <defs
     id="defs2" />
  <metadata
     id="metadata5">
    <rdf:RDF>
      <cc:Work
         rdf:about="">
        <dc:format>image/svg+xml</dc:format>
        <dc:type
           rdf:resource="http://purl.org/dc/dcmitype/StillImage" />
        <dc:title></dc:title>
      </cc:Work>
    </rdf:RDF>
  </metadata>
  <g
     transform="translate(-11.603715,-20.757161)"
     id="layer1">
    <g
       id="text3701"
       style="font-style:normal;font-variant:normal;font-weight:normal;font-stretch:normal;font-size:36.70299911px;line-height:1.25;font-family:Candara;-inkscape-font-specification:Candara;letter-spacing:0px;word-spacing:0px;fill:#000000;fill-opacity:1;stroke:none;stroke-width:0.19116145"
       aria-label="{Venture}">
      <path
         id="path5014"
         style="font-size:50.79999924px;letter-spacing:1.58749998px;fill:#4183c4;fill-opacity:1"
         d="m 15.96934,33.246321 q -0.806152,0.669727 -1.723926,0.669727 0.855762,0 1.723926,0.756543 1.165821,0.892969 1.165821,2.54248 v 5.531445 q 0,1.21543 0.558105,2.033985 0.706934,1.016992 1.934766,1.016992 l -1.21543,1.37666 q -0.508496,0 -1.463477,-0.297656 -0.95498,-0.285254 -1.736328,-1.227832 -0.917773,-1.265039 -0.917773,-2.740918 v -5.283398 q 0,-1.63711 -1.016992,-2.6417 -0.446485,-0.471289 -1.00459,-0.74414 -0.545703,-0.272852 -0.669727,-0.272852 0.02481,-0.0248 0.359668,-0.16123 0.334864,-0.136426 0.669727,-0.347266 0.347265,-0.21084 0.644922,-0.508496 1.016992,-1.016992 1.016992,-2.641699 v -5.283398 q 0,-1.575098 0.917773,-2.740918 0.768946,-0.930176 1.723926,-1.227832 0.967383,-0.297657 1.475879,-0.297657 l 1.21543,1.364258 q -1.227832,0 -1.934766,1.016992 -0.558105,0.818555 -0.558105,2.033985 v 5.531445 q 0,1.649512 -1.165821,2.54248 z" />
      <path
         id="path5016"
         style="font-style:normal;font-variant:normal;font-weight:normal;font-stretch:normal;font-size:49.38888931px;line-height:1.25;font-family:LilyUPC;-inkscape-font-specification:LilyUPC;letter-spacing:0.13229167px;fill:#999999"
         d="M 33.39291,46.03865 22.48057,22.779087 h 5.438083 l 6.366537,13.432428 5.088406,-13.432428 h 3.255615 z" />
      <path
         id="path5018"
         style="font-size:50.79999924px;letter-spacing:0.13229167px;fill:#b3b3b3"
         d="m 48.10657,38.182454 q 0.111621,1.339453 0.917774,3.38584 0.806152,2.046387 2.939355,2.145605 2.604492,0 4.080371,-0.657324 1.475879,-0.669726 1.922363,-1.116211 l -0.719336,2.939356 q 0,0.260449 -1.475879,0.694531 -1.475878,0.421679 -3.75791,0.421679 -0.905371,0 -1.413867,-0.04961 -3.695898,-0.272851 -5.419824,-2.120801 -1.711523,-1.860351 -1.74873,-5.953125 0,-4.688085 1.947168,-6.870898 1.95957,-2.182812 5.729882,-2.220019 4.526856,0 6.13916,2.38125 1.376661,1.971972 1.376661,5.333007 0,0.63252 -0.03721,1.079004 -0.03721,0.434082 -0.06201,0.607715 z m 3.460254,-7.267773 Q 48.10657,31.026302 48.10657,35.93763 h 7.366992 q 0,-5.022949 -3.906738,-5.022949 z" />
      <path
         id="path5020"
         style="font-size:50.79999924px;letter-spacing:0.13229167px;fill:#b3b3b3"
         d="M 74.829486,32.787435 V 45.797493 H 71.270013 V 33.407552 q 0,-2.133203 -3.249414,-2.133203 -1.5875,0.186035 -2.282031,0.992187 -0.682129,0.79375 -0.818555,1.289844 V 45.797493 H 60.145111 V 28.880696 h 4.774902 v 1.37666 q 0.09922,-0.06201 0.669727,-0.446484 0.58291,-0.384473 1.637109,-0.706933 1.066602,-0.322461 2.468066,-0.322461 2.6417,0 3.881934,1.215429 1.252637,1.203028 1.252637,2.790528 z" />
      <path
         id="path5022"
         style="font-size:50.79999924px;letter-spacing:0.13229167px;fill:#b3b3b3"
         d="m 84.151915,31.013899 v 9.810254 q 0,1.463477 0.868164,2.083594 0.620117,0.496094 2.344043,0.496094 v 2.393652 q -0.148828,0.0124 -0.533301,0.02481 -0.396875,0.0248 -0.892969,0.0248 -3.261816,0 -4.774902,-1.116211 -1.785938,-1.215429 -1.785938,-4.117578 v -9.599414 h -3.199804 v -2.133203 h 3.199804 v -6.759277 h 4.774903 v 6.759277 h 3.212207 v 2.133203 z" />
      <path
         id="path5024"
         style="font-size:50.79999924px;letter-spacing:0.13229167px;fill:#b3b3b3"
         d="m 93.362724,41.022591 q 0,1.054199 0.768945,1.74873 0.781348,0.694531 1.922364,0.694531 1.885156,-0.04961 2.691308,-0.892968 0.806152,-0.84336 0.967383,-1.401465 V 28.880696 h 3.559476 v 16.916797 h -3.559476 v -1.575098 q -0.483691,0.409278 -2.095996,1.016993 -1.612305,0.607714 -4.452441,0.607714 -2.108399,-0.07441 -3.348633,-1.277441 -1.227832,-1.203027 -1.227832,-3.398242 V 28.880696 h 4.774902 z" />
      <path
         id="path5026"
         style="font-size:50.79999924px;letter-spacing:0.13229167px;fill:#b3b3b3"
         d="M 105.68652,45.797493 V 28.880696 h 4.7749 v 2.083594 q 0.0248,-0.0248 0.28525,-0.347266 0.27285,-0.334863 0.80615,-0.694531 0.5333,-0.359668 1.45108,-0.682129 0.97978,-0.409277 2.49287,-0.409277 1.16582,0 1.46348,0.09922 l 0.40927,2.443261 q -0.86816,-0.210839 -1.6247,-0.210839 -1.64952,0 -2.74092,0.620117 -1.22783,0.607715 -1.88516,1.661914 -0.65732,1.054199 -0.65732,1.934765 v 10.417969 z" />
      <path
         id="path5028"
         style="letter-spacing:0.5291667px;fill:#b3b3b3;fill-opacity:1"
         d="m 123.08287,38.182454 q 0.11162,1.339453 0.91778,3.38584 0.80615,2.046387 2.93935,2.145605 2.60449,0 4.08037,-0.657324 1.47588,-0.669726 1.92237,-1.116211 l -0.71934,2.939356 q 0,0.260449 -1.47588,0.694531 -1.47588,0.421679 -3.75791,0.421679 -0.90537,0 -1.41387,-0.04961 -3.69589,-0.272851 -5.41982,-2.120801 -1.71152,-1.860351 -1.74873,-5.953125 0,-4.688085 1.94717,-6.870898 1.95957,-2.182812 5.72988,-2.220019 4.52686,0 6.13916,2.38125 1.37666,1.971972 1.37666,5.333007 0,0.63252 -0.0372,1.079004 -0.0372,0.434082 -0.062,0.607715 z m 3.46026,-7.267773 q -3.46026,0.111621 -3.46026,5.022949 h 7.367 q 0,-5.022949 -3.90674,-5.022949 z" />
      <path
         id="path5030"
         style="font-size:50.79999924px;letter-spacing:0.5291667px;fill:#ff6262;fill-opacity:1"
         d="m 139.8343,33.246321 q -1.16582,-0.892968 -1.16582,-2.54248 v -5.531445 q 0,-1.240235 -0.5581,-2.033985 -0.69453,-1.016992 -1.93477,-1.016992 l 1.22783,-1.364258 q 0.5085,0 1.45108,0.297657 0.95498,0.285253 1.69912,1.227832 0.95498,1.116211 0.95498,2.740918 v 5.283398 q 0,1.612305 1.01699,2.641699 0.45889,0.434082 0.91777,0.657324 0.45889,0.223242 0.75655,0.359668 -0.11162,0 -0.65733,0.272852 -0.5457,0.272851 -1.01699,0.74414 -1.01699,1.016993 -1.01699,2.6417 v 5.283398 q 0,1.537891 -0.95498,2.740918 -0.75654,0.942578 -1.69912,1.227832 -0.94258,0.297656 -1.45108,0.297656 l -1.22783,-1.37666 q 1.24024,0 1.93477,-1.016992 0.5581,-0.79375 0.5581,-2.033985 v -5.531445 q 0,-1.649511 1.16582,-2.54248 0.88057,-0.756543 1.72393,-0.756543 -0.90537,0 -1.72393,-0.669727 z" />
    </g>
    <text
       id="text4570"
       y="-53.761902"
       x="-12.473214"
       style="font-style:normal;font-weight:normal;font-size:7.05555534px;line-height:1.25;font-family:sans-serif;letter-spacing:0px;word-spacing:0px;fill:#000000;fill-opacity:1;stroke:none;stroke-width:0.26458332"
       xml:space="preserve"><tspan
         style="stroke-width:0.26458332"
         y="-47.324905"
         x="-12.473214"
         id="tspan4568"></tspan></text>
  </g>
</svg>
